<svg width="1515" height="707" viewBox="0 0 1515 707" fill="none" xmlns="http://www.w3.org/2000/svg">
<g clip-path="url(#clip0)">
<path d="M174.875 451.037C148.399 451.422 122.188 445.729 98.257 434.396C74.3262 423.063 53.3133 406.393 36.8345 385.667C20.3556 364.941 8.8499 340.712 3.20216 314.843C-2.44558 288.974 -2.08485 262.154 4.2566 236.446C10.5981 210.738 22.7513 186.827 39.7816 166.552C56.8119 146.276 78.2655 130.177 102.492 119.492C126.719 108.808 153.074 103.822 179.53 104.918C205.986 106.014 231.838 113.164 255.098 125.817C259.209 127.977 262.855 130.926 265.828 134.495C268.8 138.064 271.04 142.184 272.42 146.618C273.8 151.053 274.293 155.716 273.87 160.342C273.448 164.967 272.119 169.464 269.959 173.576C267.799 177.687 264.85 181.333 261.281 184.305C257.712 187.277 253.593 189.517 249.158 190.897C244.723 192.277 240.06 192.77 235.435 192.348C230.809 191.926 226.312 190.597 222.201 188.437C201.257 177.408 177.122 174.027 153.954 178.879C130.786 183.73 110.035 196.51 95.2761 215.016C80.517 233.522 72.6739 256.595 73.0977 280.262C73.5215 303.929 82.1857 326.707 97.5978 344.673C113.01 362.638 134.205 374.666 157.532 378.685C180.859 382.704 204.857 378.462 225.393 366.69C245.928 354.918 261.715 336.352 270.035 314.192C278.354 292.031 278.684 267.663 270.969 245.286C269.327 240.869 268.584 236.169 268.784 231.462C268.983 226.754 270.123 222.135 272.134 217.874C274.145 213.613 276.987 209.797 280.495 206.65C284.002 203.504 288.102 201.09 292.556 199.551C297.009 198.012 301.725 197.379 306.426 197.689C311.128 197.999 315.72 199.245 319.933 201.355C324.146 203.466 327.894 206.397 330.958 209.976C334.022 213.556 336.339 217.712 337.773 222.2C346.767 248.173 349.421 275.921 345.513 303.128C341.605 330.336 331.249 356.215 315.309 378.607C299.369 401 278.306 419.257 253.878 431.856C229.449 444.455 202.362 451.032 174.875 451.037Z" fill="#EE765D"/>
<path d="M37.9438 706.999C33.2337 706.999 28.5705 706.062 24.2261 704.243C19.8817 702.423 15.9429 699.757 12.6393 696.399C9.33567 693.042 6.73332 689.061 4.98389 684.688C3.23446 680.314 2.37293 675.637 2.44952 670.927V289.58C3.02445 280.576 7.00654 272.129 13.5863 265.956C20.166 259.783 28.8495 256.348 37.8717 256.348C46.8938 256.348 55.5773 259.783 62.1571 265.956C68.7368 272.129 72.7189 280.576 73.2938 289.58V670.927C73.3898 675.63 72.5463 680.304 70.8129 684.677C69.0794 689.049 66.4907 693.032 63.1986 696.391C59.9064 699.75 55.977 702.419 51.6404 704.24C47.3038 706.062 42.6474 707 37.9438 706.999Z" fill="#EE765D"/>
<path d="M441.95 84.1156C431.948 84.4006 422.207 80.8961 414.68 74.3042C410.941 70.7796 408.04 66.4608 406.192 61.6663C404.345 56.8717 403.596 51.7236 404.002 46.6013C403.873 41.546 404.852 36.5236 406.871 31.8872C408.89 27.2507 411.9 23.1128 415.69 19.7642C422.96 13.1509 432.392 9.41467 442.219 9.25532C452.046 9.09596 461.594 12.5244 469.075 18.8985C472.988 22.3275 476.062 26.6074 478.063 31.4097C480.064 36.2119 480.938 41.4088 480.618 46.6013C480.889 51.7404 480.021 56.8758 478.075 61.64C476.129 66.4043 473.155 70.6795 469.364 74.1599C461.868 80.9163 452.034 84.4872 441.95 84.1156ZM479.897 163.184V384.374C480.8 396.938 476.878 409.374 468.931 419.147C465.417 423.01 461.109 426.068 456.302 428.11C451.496 430.152 446.304 431.131 441.084 430.978C435.888 431.066 430.739 429.984 426.018 427.811C421.297 425.638 417.126 422.43 413.814 418.426C406.526 408.639 403.039 396.539 404.002 384.374V165.493C403.054 153.171 406.819 140.949 414.535 131.297C417.982 127.523 422.203 124.538 426.909 122.546C431.616 120.554 436.697 119.601 441.805 119.754C446.998 119.612 452.162 120.567 456.96 122.556C461.758 124.545 466.083 127.523 469.652 131.297C477.068 140.198 480.74 151.63 479.897 163.184Z" fill="#EE765D"/>
<path d="M628.368 162.032V171.41C640.041 155.244 655.174 141.886 672.663 132.309C689.685 123.69 708.561 119.379 727.636 119.756C746.501 119.405 765.138 123.927 781.743 132.886C797.308 141.218 809.797 154.314 817.382 170.256C822.468 179.675 825.793 189.944 827.194 200.556C828.928 214.289 829.7 228.126 829.502 241.966V384.376C830.399 396.869 826.648 409.253 818.969 419.149C815.445 422.933 811.18 425.951 806.438 428.014C801.697 430.078 796.581 431.143 791.411 431.143C786.24 431.143 781.124 430.078 776.383 428.014C771.642 425.951 767.376 422.933 763.852 419.149C756.153 409.369 752.35 397.084 753.175 384.665V256.828C754.234 237.03 750.626 217.261 742.642 199.113C738.29 192.144 732.045 186.557 724.635 183.005C717.225 179.454 708.958 178.084 700.799 179.058C687.339 178.964 674.216 183.27 663.429 191.322C652.035 199.754 643.439 211.417 638.756 224.796C634.021 245.704 632.129 267.156 633.129 288.57V384.376C634.166 396.952 630.345 409.448 622.452 419.293C618.897 423.134 614.557 426.165 609.728 428.182C604.898 430.198 599.691 431.153 594.461 430.98C589.287 431.057 584.163 429.969 579.467 427.796C574.771 425.623 570.625 422.421 567.335 418.428C559.636 408.647 555.833 396.363 556.658 383.943V163.186C555.755 151.52 559.142 139.925 566.181 130.578C569.456 126.946 573.499 124.091 578.017 122.219C582.535 120.347 587.413 119.505 592.296 119.756C598.676 119.667 604.96 121.312 610.476 124.518C616.152 127.918 620.676 132.945 623.462 138.946C626.924 146.137 628.607 154.055 628.368 162.032Z" fill="#EE765D"/>
<path d="M1180.26 336.187C1179.93 346.939 1176.95 357.445 1171.6 366.776C1165.06 378.72 1156.24 389.261 1145.63 397.797C1132.5 408.344 1117.53 416.366 1101.48 421.46C1082.08 427.648 1061.81 430.668 1041.45 430.406C1021.16 431.682 1000.82 428.71 981.739 421.679C962.658 414.648 945.255 403.713 930.641 389.573C917.011 374.65 906.473 357.173 899.638 338.153C892.803 319.133 889.805 298.947 890.818 278.761C890.071 249.765 896.306 221.013 908.998 194.931C920.546 171.414 938.894 151.91 961.663 138.948C982.636 128.189 1005.53 121.67 1029.02 119.763C1052.52 117.857 1076.16 120.601 1098.59 127.838C1113.79 132.948 1128.03 140.555 1140.72 150.347C1151.17 158.279 1160.07 168.06 1166.98 179.204C1172.52 187.844 1175.66 197.805 1176.07 208.061C1176.15 212.431 1175.29 216.768 1173.55 220.777C1171.81 224.785 1169.22 228.371 1165.97 231.291C1159.25 237.573 1150.35 240.989 1141.15 240.814C1135.46 241.051 1129.85 239.318 1125.28 235.908C1119.75 231.375 1114.9 226.08 1110.85 220.181C1103.31 207.801 1093.53 196.938 1082 188.15C1070.42 180.673 1056.81 176.945 1043.04 177.473C1032.48 177.185 1022.01 179.448 1012.52 184.07C1003.02 188.692 994.785 195.536 988.5 204.021C973.657 225.048 966.337 250.464 967.723 276.164C967.398 290.111 969.199 304.025 973.061 317.43C976.104 328.646 981.353 339.143 988.5 348.307C994.973 356.601 1003.33 363.229 1012.88 367.641C1022.72 372.089 1033.4 374.353 1044.19 374.278C1058.09 374.643 1071.78 370.931 1083.58 363.601C1095.66 355.183 1105.55 344.004 1112.44 330.993C1116.18 323.558 1121.05 316.744 1126.87 310.793C1132.35 305.951 1139.47 303.373 1146.78 303.578C1151.23 303.506 1155.63 304.427 1159.68 306.275C1163.72 308.122 1167.3 310.848 1170.16 314.256C1176.07 320.102 1179.65 327.895 1180.26 336.187Z" fill="#EE765D"/>
<path d="M1307.52 52.5194V166.072C1316 156.018 1325.69 147.053 1336.37 139.379C1345.76 132.924 1356.14 128.05 1367.11 124.951C1378.83 121.588 1390.98 119.935 1403.18 120.045C1421.22 119.714 1439.05 123.984 1454.98 132.454C1470.03 140.68 1482.37 153.114 1490.47 168.237C1495.95 177.734 1499.67 188.147 1501.44 198.969C1503.41 211.908 1504.32 224.984 1504.18 238.071V384.377C1505.15 396.877 1501.39 409.286 1493.65 419.149C1490.18 423.068 1485.88 426.163 1481.06 428.209C1476.24 430.256 1471.03 431.203 1465.8 430.981C1440.55 430.981 1428 415.398 1428 384.377V255.241C1429.01 235.775 1425.25 216.357 1417.03 198.681C1412.63 191.74 1406.35 186.195 1398.91 182.695C1391.47 179.194 1383.2 177.883 1375.04 178.914C1361.85 178.777 1348.95 182.873 1338.25 190.601C1327.1 198.505 1318.56 209.557 1313.72 222.344C1308.57 242.207 1306.48 262.739 1307.52 283.232V384.232C1308.35 396.629 1304.72 408.915 1297.27 418.861C1293.7 422.926 1289.24 426.119 1284.23 428.195C1279.23 430.27 1273.82 431.174 1268.42 430.837C1243.17 430.837 1230.47 415.254 1230.47 384.232V52.3751C1229.69 39.918 1233.37 27.5906 1240.86 17.6023C1244.34 13.6662 1248.66 10.5698 1253.51 8.54563C1258.36 6.52144 1263.6 5.62209 1268.85 5.91513C1274.24 5.54899 1279.65 6.4252 1284.65 8.47633C1289.66 10.5275 1294.12 13.6989 1297.71 17.7466C1305.07 27.7727 1308.55 40.124 1307.52 52.5194Z" fill="#EE765D"/>
</g>
<defs>
<clipPath id="clip0">
<rect width="1515" height="707" fill="white"/>
</clipPath>
</defs>
</svg>
